<?xml version="1.0" encoding="UTF-8" ?>
<!DOCTYPE svg PUBLIC "-//W3C//DTD SVG 1.1//EN" "http://www.w3.org/Graphics/SVG/1.1/DTD/svg11.dtd">
<svg width="512pt" height="512pt" viewBox="0 0 512 512" version="1.1" xmlns="http://www.w3.org/2000/svg">
<!--main building-->
<path fill="#fff" d=" M 32.00 0.00 L 256.00 0.00 C 256.00 64.00 256.00 128.00 256.00 192.00 C 330.67 192.00 405.33 192.00 480.00 192.00 C 480.00 288.00 480.00 383.99 480.00 479.99 C 490.66 480.00 501.33 479.99 512.00 480.01 L 512.00 512.00 L 0.00 512.00 L 0.00 480.01 C 10.67 479.99 21.33 480.00 32.00 479.99 C 32.00 320.00 32.00 160.00 32.00 0.00 Z" />

<!--windows-->
<path fill="#303083" d=" M 0.00 0.00 L 32.00 0.00 C 32.00 160.00 32.00 320.00 32.00 479.99 C 21.33 480.00 10.67 479.99 0.00 480.01 L 0.00 0.00 Z" />
<path fill="#303083" d=" M 256.00 0.00 L 512.00 0.00 L 512.00 480.01 C 501.33 479.99 490.66 480.00 480.00 479.99 C 480.00 383.99 480.00 288.00 480.00 192.00 C 405.33 192.00 330.67 192.00 256.00 192.00 C 256.00 128.00 256.00 64.00 256.00 0.00 Z" />
<path fill="#303083" d=" M 64.00 32.00 C 85.33 31.99 106.67 32.00 128.00 32.00 C 128.00 53.33 128.00 74.67 128.00 96.00 C 106.67 96.00 85.33 96.00 64.00 96.00 C 63.99 74.67 64.00 53.33 64.00 32.00 Z" />
<path fill="#303083" d=" M 160.00 32.00 C 181.33 31.99 202.66 32.00 224.00 32.00 C 224.00 53.33 224.00 74.67 224.00 96.00 C 202.66 96.00 181.33 96.00 160.00 96.00 C 159.99 74.67 160.00 53.33 160.00 32.00 Z" />
<path fill="#303083" d=" M 64.00 128.00 C 85.33 127.99 106.67 128.00 128.00 128.00 C 128.00 149.33 128.00 170.67 128.00 192.00 C 106.67 192.00 85.33 192.00 64.00 192.00 C 63.99 170.66 64.00 149.33 64.00 128.00 Z" />
<path fill="#303083" d=" M 160.00 128.00 C 181.33 127.99 202.66 128.00 224.00 128.00 C 224.00 149.33 224.00 170.67 224.00 192.00 C 202.66 192.00 181.33 192.00 160.00 192.00 C 159.99 170.66 160.00 149.33 160.00 128.00 Z" />
<path fill="#303083" d=" M 64.00 224.00 C 85.33 223.99 106.67 224.00 128.00 224.00 C 128.00 245.33 128.00 266.66 128.00 288.00 C 106.67 288.00 85.33 288.00 64.00 288.00 C 63.99 266.66 64.00 245.33 64.00 224.00 Z" />
<path fill="#303083" d=" M 160.00 224.00 C 181.33 223.99 202.66 224.00 224.00 224.00 C 224.00 245.33 224.00 266.66 224.00 288.00 C 202.66 288.00 181.33 288.00 160.00 288.00 C 159.99 266.66 160.00 245.33 160.00 224.00 Z" />
<path fill="#303083" d=" M 288.00 224.00 C 309.33 223.99 330.66 224.00 352.00 224.00 C 352.00 245.33 352.00 266.66 352.00 288.00 C 330.66 288.00 309.33 288.00 288.00 288.00 C 287.99 266.66 288.00 245.33 288.00 224.00 Z" />
<path fill="#303083" d=" M 384.00 224.00 C 405.33 223.99 426.66 224.00 448.00 224.00 C 448.00 245.33 448.00 266.66 448.00 288.00 C 426.66 288.00 405.33 288.00 384.00 288.00 C 383.99 266.66 384.00 245.33 384.00 224.00 Z" />
<path fill="#303083" d=" M 64.00 320.00 C 85.33 319.99 106.67 320.00 128.00 320.00 C 128.00 341.33 128.00 362.66 128.00 384.00 C 106.67 384.00 85.33 384.00 64.00 384.00 C 63.99 362.66 64.00 341.33 64.00 320.00 Z" />
<path fill="#303083" d=" M 160.00 320.00 C 181.33 319.99 202.66 320.00 224.00 320.00 C 224.00 341.33 224.00 362.66 224.00 384.00 C 202.66 384.00 181.33 384.00 160.00 384.00 C 159.99 362.66 160.00 341.33 160.00 320.00 Z" />
<path fill="#303083" d=" M 288.00 320.00 C 309.33 319.99 330.66 320.00 352.00 320.00 C 352.00 341.33 352.00 362.66 352.00 384.00 C 330.66 384.00 309.33 384.00 288.00 384.00 C 287.99 362.66 288.00 341.33 288.00 320.00 Z" />
<path fill="#303083" d=" M 384.00 320.00 C 405.33 319.99 426.66 320.00 448.00 320.00 C 448.00 341.33 448.00 362.66 448.00 384.00 C 426.66 384.00 405.33 384.00 384.00 384.00 C 383.99 362.66 384.00 341.33 384.00 320.00 Z" />
<path fill="#303083" d=" M 96.00 416.00 C 128.00 416.00 160.00 416.00 192.00 416.00 C 192.00 437.33 192.00 458.67 192.00 480.00 C 160.00 480.00 128.00 480.00 96.00 480.00 C 96.00 458.66 96.00 437.33 96.00 416.00 Z" />
<path fill="#303083" d=" M 320.00 416.00 C 352.00 416.00 384.00 416.00 416.00 416.00 C 416.00 437.33 416.00 458.67 416.00 480.00 C 384.00 480.00 352.00 480.00 320.00 480.00 C 320.00 458.66 320.00 437.33 320.00 416.00 Z" />
</svg>
